<svg xmlns="http://www.w3.org/2000/svg" viewBox="0 0 120 120" width="120" height="120">
  <defs>
    <linearGradient id="bg" x1="0%" y1="0%" x2="100%" y2="100%">
      <stop offset="0%" style="stop-color:#0066ff;stop-opacity:0.3"/>
      <stop offset="100%" style="stop-color:#7c3aed;stop-opacity:0.3"/>
    </linearGradient>
  </defs>
  <rect width="120" height="120" rx="24" fill="#0a0c10"/>
  <rect width="120" height="120" rx="24" fill="url(#bg)"/>
  <circle cx="60" cy="38" r="18" fill="#24292e"/>
  <circle cx="53" cy="36" r="5" fill="white"/>
  <circle cx="67" cy="36" r="5" fill="white"/>
  <circle cx="54" cy="36" r="2.5" fill="#0d1117"/>
  <circle cx="68" cy="36" r="2.5" fill="#0d1117"/>
  <path d="M54 43 Q60 49 66 43" fill="none" stroke="white" stroke-width="2" stroke-linecap="round"/>
  <ellipse cx="60" cy="60" rx="20" ry="22" fill="#24292e"/>
  <circle cx="44" cy="28" r="6" fill="#24292e"/>
  <circle cx="76" cy="28" r="6" fill="#24292e"/>
  <!-- Git branch lines -->
  <line x1="60" y1="82" x2="60" y2="100" stroke="#7c3aed" stroke-width="2.5" stroke-linecap="round"/>
  <line x1="60" y1="90" x2="48" y2="100" stroke="#0066ff" stroke-width="2" stroke-linecap="round"/>
  <line x1="60" y1="90" x2="72" y2="100" stroke="#0066ff" stroke-width="2" stroke-linecap="round"/>
  <circle cx="60" cy="90" r="3" fill="#7c3aed"/>
  <circle cx="48" cy="100" r="2.5" fill="#0066ff"/>
  <circle cx="72" cy="100" r="2.5" fill="#0066ff"/>
</svg>
