<svg xmlns="http://www.w3.org/2000/svg" viewBox="0 0 24 24" width="24" height="24" fill="none" stroke="#7c3aed" stroke-width="2" stroke-linecap="round" stroke-linejoin="round"><path d="M12 2a8 8 0 0 0-8 8c0 3.4 2.1 6.3 5 7.5V20h6v-2.5c2.9-1.2 5-4.1 5-7.5a8 8 0 0 0-8-8z"/><path d="M9.5 9a1.5 1.5 0 1 0 0 3"/><path d="M14.5 9a1.5 1.5 0 1 1 0 3"/><line x1="9" y1="22" x2="15" y2="22"/><path d="M12 2v-0" stroke="#facc15" stroke-width="2"><animate attributeName="d" values="M12 2v0;M12 0v0;M12 2v0" dur="2s" repeatCount="indefinite"/></path><path d="M4.93 4.93l0 0" stroke="#facc15" stroke-width="2"><animate attributeName="d" values="M4.93 4.93l0 0;M3.52 3.52l0 0;M4.93 4.93l0 0" dur="2s" repeatCount="indefinite"/></path><path d="M19.07 4.93l0 0" stroke="#facc15" stroke-width="2"><animate attributeName="d" values="M19.07 4.93l0 0;M20.48 3.52l0 0;M19.07 4.93l0 0" dur="2s" repeatCount="indefinite"/></path></svg>
